Coordinates
version=1
nRows=19
nColumns=34
inDegrees=yes

Units are S.I. units (second, meters, Newtons, ...)
If the header above contains a line with 'inDegrees', this indicates whether rotational values are in degrees (yes) or radians (no).

endheader
time	pelvis_tilt	pelvis_list	pelvis_rotation	pelvis_tx	pelvis_ty	pelvis_tz	hip_flexion_r	hip_adduction_r	hip_rotation_r	knee_angle_r	ankle_angle_r	subtalar_angle_r	mtp_angle_r	hip_flexion_l	hip_adduction_l	hip_rotation_l	knee_angle_l	ankle_angle_l	subtalar_angle_l	mtp_angle_l	lumbar_extension	lumbar_bending	lumbar_rotation	arm_flex_r	arm_add_r	arm_rot_r	elbow_flex_r	pro_sup_r	arm_flex_l	arm_add_l	arm_rot_l	elbow_flex_l	pro_sup_l
      2.50000000	    -28.88002608	      3.87449363	     -5.94656519	      0.76981364	      0.61010115	      0.03057719	     90.43682152	    -18.94965377	     -0.81222759	    103.21371499	     32.74020212	     -5.81155413	      0.00000000	     90.81679177	    -12.78758034	     -0.85361215	    102.66433000	     28.39935794	    -14.56497293	      0.00000000	    -45.96832242	     -1.22778784	     -0.44786582	     63.88515038	      6.30653653	     27.39762649	    110.84712676	     93.69632535	     63.86446737	      9.14083165	     16.73489672	     79.46725167	     84.26180131
      2.51666670	    -28.59315416	      4.13027590	     -6.30760851	      0.78841411	      0.63188285	      0.03367594	     86.46625801	    -18.39101094	     -1.03487428	     99.94479607	     33.00895896	     -5.34683907	      0.00000000	     87.90332319	    -13.87325585	     -2.08009097	    100.84985028	     27.33072242	    -13.56405262	      0.00000000	    -45.81905540	     -1.55174434	      0.79589022	     56.76149040	      5.88972182	     28.63565602	    116.00094905	     95.26211685	     60.00222344	     10.95308585	     20.38488346	     80.56124593	     83.15230083
      2.53333330	    -27.80617967	      4.32697493	     -6.69173531	      0.79433831	      0.65120260	      0.03652910	     82.66217023	    -18.17743362	     -1.25577090	     96.96068611	     31.48126432	     -5.72351986	      0.00000000	     84.40457636	    -14.49809473	     -3.24355005	     98.57481549	     26.41731247	    -12.18108519	      0.00000000	    -45.61335381	     -1.62671573	      1.02778968	     52.41912293	      5.31965688	     28.86337259	    116.88106289	     95.71774388	     56.65801902	     11.36107193	     21.62545408	     81.77139696	     82.91470949
      2.55000000	    -27.11060354	      4.48136490	     -7.34100134	      0.80201441	      0.67111591	      0.03827778	     78.72244334	    -17.62480978	     -1.75442656	     93.32676214	     30.23259175	     -5.92119138	      0.00000000	     80.70013003	    -14.96681759	     -4.32361611	     95.66976327	     24.95729994	    -11.55309796	      0.00000000	    -45.08162049	     -1.83389648	      1.65912906	     46.39684385	      3.56488963	     27.52325476	    116.53071766	     96.12230241	     52.43650883	      9.99036981	     21.95132524	     83.22061256	     82.65797806
      2.56666670	    -25.89639003	      4.78199557	     -7.92295109	      0.82603354	      0.69567073	      0.03248336	     73.99540851	    -17.74641188	     -1.98789181	     89.37704827	     28.20563330	     -6.28887168	      0.00000000	     75.47937700	    -14.74385907	     -5.91856609	     92.01019668	     23.54463054	    -11.48576517	      0.00000000	    -44.63032552	     -1.68851006	      1.71122931	     39.23582868	      0.27791182	     25.24123986	    114.02144779	     96.65010720	     46.30717170	      7.63578560	     21.19639120	     85.09774676	     82.31780408
      2.58333330	    -24.37108715	      5.16092678	     -8.36549134	      0.84503336	      0.70547304	      0.03450091	     69.77065059	    -18.34991975	     -1.89343034	     86.99713559	     26.92196374	     -6.04955831	      0.00000000	     70.15757565	    -14.14159644	     -7.37040384	     89.01345844	     22.97388455	    -12.01083056	      0.00000000	    -43.55636902	     -1.63364095	      1.90663745	     30.92037770	     -4.06905284	     22.03549987	    109.79548858	     97.05700389	     36.97188908	      4.41071959	     18.33947908	     87.77066024	     82.02220487
      2.60000000	    -23.08706773	      5.35216215	     -7.95669255	      0.85729996	      0.72047656	      0.04517279	     65.46340899	    -18.90607788	     -2.28241620	     84.60993516	     26.03655426	     -6.13438960	      0.00000000	     65.44624236	    -13.50906960	     -8.38322538	     85.71951040	     22.09109149	    -12.29562708	      0.00000000	    -41.66126818	     -1.25774405	      1.16092470	     23.21050029	     -8.12631284	     18.23197287	    103.08458021	     97.69924409	     27.04789511	      0.35739741	     10.38338124	     90.46631317	     81.92903729
      2.61666670	    -21.82891352	      5.44875860	     -7.34703671	      0.86103067	      0.75402524	      0.04814919	     60.53676042	    -18.75179560	     -3.28192289	     80.30912086	     24.61068926	     -7.26349722	      0.00000000	     60.41967099	    -12.40815520	     -9.26270507	     80.62219347	     20.09966971	    -12.67840284	      0.00000000	    -40.24708030	     -1.23923155	      1.38290346	     15.02425462	    -11.43246075	      8.93690137	     96.90113750	     97.26708634	     19.47542940	     -4.28215281	      0.99508382	     91.67677270	     82.07956075
      2.63333330	    -21.11579624	      5.73607465	     -6.93995622	      0.87721780	      0.76797199	      0.05515130	     56.23423163	    -18.48499143	     -4.15409416	     75.94383131	     23.71588712	     -7.53275537	      0.00000000	     56.16895183	    -11.64377068	     -9.87545109	     75.91036169	     17.92496065	    -12.90926147	      0.00000000	    -37.43875993	     -1.98162327	      1.87755972	      6.32350157	    -14.60871036	     -0.66887224	     91.45281141	     96.92621984	     10.64964995	     -9.41733134	    -10.73369964	     93.05220460	     83.01239253
      2.65000000	    -20.62225611	      5.97245812	     -6.79946236	      0.89336412	      0.79567827	      0.05802703	     51.97248954	    -17.81709608	     -4.96604845	     70.67469308	     21.12682183	     -8.45642839	      0.00000000	     51.38840652	    -10.76695103	    -10.74355645	     70.00816669	     15.31285128	    -13.39762948	      0.00000000	    -34.48576776	     -2.82447521	      2.39732080	     -3.31711851	    -17.07122605	    -14.12206551	     87.53969231	     96.41355058	      1.68639220	    -13.82778509	    -25.76022797	     94.23014824	     83.96855892
      2.66666670	    -19.33022964	      6.22298740	     -6.65555263	      0.91175283	      0.82394305	      0.05917912	     46.00595038	    -17.56137554	     -5.93334014	     64.11107038	     17.79437536	     -9.11371769	      0.00000000	     44.95812936	     -9.26826049	    -11.51711419	     62.45736676	     12.73570740	    -13.14683458	      0.00000000	    -31.96146162	     -3.60241957	      3.58330716	    -14.02416758	    -19.08524205	    -30.31736744	     85.26516255	     96.24034379	     -6.38236768	    -17.18541200	    -40.06182197	     95.72876408	     86.04361359
      2.68333330	    -18.92123166	      6.23943004	     -6.55038136	      0.90986660	      0.85259117	      0.05588275	     42.00734753	    -16.87812492	     -6.77791294	     57.60383530	     13.66122658	     -9.25412326	      0.00000000	     40.34487149	     -7.81864297	    -11.84990168	     54.81132766	      9.03658687	    -13.33012712	      0.00000000	    -29.50942650	     -3.66920334	      4.56140708	    -23.89644346	    -19.08730528	    -49.10506281	     87.16315395	     95.74368540	    -12.70730390	    -22.05886600	    -54.24078796	     98.71406386	     86.69261322
      2.70000000	    -18.06957151	      6.03019307	     -6.44472434	      0.92865243	      0.88586010	      0.06038004	     36.17239706	    -16.13507995	     -8.44425185	     49.28461343	      8.26038659	     -8.88708073	      0.00000000	     34.42609126	     -6.40579751	    -11.60496231	     45.88870794	      4.33864042	    -12.64893709	      0.00000000	    -27.30429362	     -2.75351414	      5.07901743	    -30.85388421	    -16.85484119	    -69.62775946	     97.26922680	     95.08976371	    -17.03745084	    -26.79261467	    -67.67124589	    100.19103600	     86.86516521
      2.71666670	    -17.64660712	      5.88076522	     -6.08823002	      0.95609840	      0.91066214	      0.06731417	     30.05028541	    -15.32330645	    -10.51102553	     40.67367335	      3.65521997	     -7.14951541	      0.00000000	     28.37869380	     -5.32109801	    -11.57712820	     36.52063947	     -0.25396104	    -10.37070765	      0.00000000	    -24.34030064	     -1.23418638	      5.79860209	    -36.21123025	    -14.44103503	    -87.54829543	    110.82461471	     94.49248677	    -20.60946531	    -30.64616917	    -79.54659465	    101.71762456	     86.69386820
      2.73333330	    -17.36913020	      5.74762272	     -5.61858402	      0.97232127	      0.93596818	      0.06928236	     24.70487489	    -14.50332276	    -12.83706557	     32.90821302	     -1.49287477	     -4.80432997	      0.00000000	     22.92837441	     -4.40975152	    -11.85432519	     27.62922252	     -5.92453464	     -7.74716187	      0.00000000	    -21.09921146	     -1.32842509	      6.61254416	    -40.64210645	    -15.99319179	   -105.68458782	    121.24027872	     93.28675318	    -27.06815776	    -37.45893545	    -86.28800060	    105.29045992	     86.39030594
      2.75000000	    -17.69485526	      5.75935813	     -5.48311437	      0.98539025	      0.96631463	      0.07201161	     20.57334090	    -13.63571457	    -14.98518267	     25.00117129	     -7.98155250	     -1.15944084	      0.00000000	     18.55645060	     -3.60230110	    -12.17725592	     18.25343160	    -13.27289669	     -4.34155390	      0.00000000	    -17.73416953	     -2.57216262	      9.77186045	    -46.86102637	    -19.82729214	   -119.79344562	    127.53215836	     91.68374406	    -33.07117357	    -43.64370335	    -91.00110855	    112.67011433	     86.14493389
      2.76666670	    -18.00604245	      5.52252353	     -5.07316484	      1.00678007	      0.99111881	      0.07662811	     16.69940271	    -12.51950364	    -17.20226163	     17.60253439	    -15.54762243	      2.98957182	      0.00000000	     14.46030484	     -3.22599889	    -13.06162774	      9.03950070	    -22.95694167	     -0.52754848	      0.00000000	    -13.59644609	     -2.65861367	     10.49588251	    -54.54713322	    -23.27124520	   -131.01113396	    131.24869012	     89.39243053	    -39.45177787	    -50.39142085	    -93.90867373	    116.75865088	     86.06690218
      2.78333330	    -18.74450895	      5.67894629	     -4.62905333	      1.02037661	      1.02445517	      0.08163036	     14.10229573	    -11.82164671	    -19.07688374	     10.68493664	    -24.03168438	      7.62189070	      0.00000000	     11.94111229	     -2.72936321	    -14.19068477	      1.51800584	    -35.30543747	      3.07276352	      0.00000000	     -9.16067772	     -2.95617966	      8.81388110	    -59.95124389	    -26.31746629	   -135.74476711	    136.37629485	     82.59227048	    -42.83797292	    -56.56157294	    -94.35668320	    118.23119942	     86.00681171
      2.80000000	    -19.76967410	      5.99643727	     -3.44944299	      1.03512793	      1.06162796	      0.08312451	     12.45112467	    -11.43956222	    -21.55673177	      4.88194001	    -34.19753329	      9.99170087	      0.00000000	     12.65069591	     -2.40461075	    -16.60763766	      0.00000000	    -44.95290247	      5.78160190	      0.00000000	     -4.94360790	     -3.98755371	      6.20780204	    -62.50725251	    -31.32506906	   -132.57891764	    141.57306108	     80.19396815	    -42.21409363	    -60.78439998	    -91.01241491	    121.58246597	     85.81529197
